<svg width="266" height="77" viewBox="0 0 266 77" fill="none" xmlns="http://www.w3.org/2000/svg">
<g clip-path="url(#clip0_2_8)">
<rect width="266" height="77" fill="#043742"/>
<path d="M18.304 55.64C15.9147 55.64 13.44 55.1493 10.88 54.168V68.632H5.632V23.32H10.624V27.8C12.5867 25.9227 14.3787 24.6 16 23.832C17.6213 23.064 19.2853 22.68 20.992 22.68C24.3627 22.68 26.944 23.96 28.736 26.52C30.5707 29.08 31.488 32.6853 31.488 37.336V41.048C31.488 45.4853 30.3573 49.0267 28.096 51.672C25.8773 54.3173 22.6133 55.64 18.304 55.64ZM19.712 27.608C18.4747 27.608 17.1947 27.928 15.872 28.568C14.5493 29.208 12.8853 30.5093 10.88 32.472V49.368C12.1173 49.9227 13.312 50.328 14.464 50.584C15.616 50.7973 16.7467 50.904 17.856 50.904C20.7573 50.904 22.848 50.0293 24.128 48.28C25.408 46.488 26.048 44.0773 26.048 41.048V37.336C26.048 34.008 25.5147 31.5547 24.448 29.976C23.424 28.3973 21.8453 27.608 19.712 27.608ZM57.8345 27.928C55.9145 27.928 54.0372 28.2693 52.2025 28.952C50.4105 29.6347 48.4905 30.936 46.4425 32.856V55H41.1945V23.32H46.1865V28.44C48.3625 26.3067 50.3465 24.8133 52.1385 23.96C53.9732 23.1067 55.8718 22.68 57.8345 22.68V27.928ZM129.675 55.32C127.712 55.32 126.134 54.872 124.939 53.976C123.787 53.08 122.976 51.9707 122.507 50.648C120.416 52.4827 118.518 53.784 116.811 54.552C115.104 55.2773 113.398 55.64 111.691 55.64C108.918 55.64 106.87 54.744 105.547 52.952C104.224 51.16 103.563 48.9627 103.563 46.36C103.563 44.6107 103.883 43.0533 104.523 41.688C105.163 40.3227 106.251 39.256 107.787 38.488C109.323 37.6773 111.392 37.272 113.995 37.272C115.147 37.272 116.406 37.3573 117.771 37.528C119.136 37.656 120.523 37.8267 121.931 38.04V33.752C121.931 31.3627 121.398 29.7413 120.331 28.888C119.307 27.992 117.792 27.544 115.787 27.544C113.056 27.544 110.006 28.2907 106.635 29.784L104.971 25.432C106.934 24.536 108.811 23.8533 110.603 23.384C112.395 22.9147 114.208 22.68 116.043 22.68C119.03 22.68 121.312 23.1707 122.891 24.152C124.47 25.1333 125.558 26.4347 126.155 28.056C126.752 29.6773 127.051 31.448 127.051 33.368V47.064C127.051 48.0453 127.243 48.8773 127.627 49.56C128.011 50.2 128.779 50.52 129.931 50.52H130.635V55.32H129.675ZM108.747 46.296C108.747 47.7467 109.088 48.92 109.771 49.816C110.454 50.712 111.435 51.16 112.715 51.16C113.824 51.16 115.104 50.84 116.555 50.2C118.006 49.5173 119.798 48.1733 121.931 46.168V42.136C119.03 41.6667 116.47 41.432 114.251 41.432C112.288 41.432 110.88 41.8373 110.027 42.648C109.174 43.4587 108.747 44.6747 108.747 46.296ZM141.782 37.272V41.048C141.782 44.2907 142.379 46.744 143.574 48.408C144.768 50.0293 146.667 50.84 149.27 50.84C151.83 50.84 154.582 50.1787 157.526 48.856L159.126 53.272C155.627 54.8507 152.235 55.64 148.95 55.64C144.854 55.64 141.739 54.3387 139.606 51.736C137.472 49.1333 136.406 45.5707 136.406 41.048V37.272C136.406 32.7493 137.472 29.1867 139.606 26.584C141.739 23.9813 144.854 22.68 148.95 22.68C150.486 22.68 152.064 22.8933 153.686 23.32C155.35 23.704 157.014 24.2587 158.678 24.984L157.078 29.464C155.67 28.8667 154.304 28.3973 152.982 28.056C151.702 27.7147 150.464 27.544 149.27 27.544C146.667 27.544 144.768 28.376 143.574 30.04C142.379 31.6613 141.782 34.072 141.782 37.272ZM184.228 53.848C181.838 55.0427 179.3 55.64 176.612 55.64C174.308 55.64 172.494 55.1707 171.172 54.232C169.892 53.2933 168.974 52.0347 168.42 50.456C167.908 48.8773 167.652 47.128 167.652 45.208V27.928H162.148V23.32H167.652V14.488H172.9V23.32H183.268V27.928H172.9V45.016C172.9 47.2347 173.262 48.7707 173.988 49.624C174.756 50.4347 175.929 50.84 177.508 50.84C178.276 50.84 179.065 50.7547 179.876 50.584C180.729 50.3707 181.646 50.0293 182.628 49.56L184.228 53.848ZM196.7 15.576H190.812V9.688H196.7V15.576ZM196.38 55H191.132V23.32H196.38V55ZM230.863 23.32L219.663 55H214.735L203.407 23.32H208.847L214.159 38.744L217.359 48.408L220.495 38.744L225.679 23.32H230.863ZM260.233 53.144C258.313 54.0827 256.393 54.7227 254.473 55.064C252.553 55.448 250.782 55.64 249.161 55.64C244.596 55.64 241.182 54.3387 238.921 51.736C236.702 49.1333 235.593 45.5707 235.593 41.048V37.208C235.593 32.8133 236.702 29.2933 238.921 26.648C241.182 24.0027 244.361 22.68 248.457 22.68C250.633 22.68 252.617 23.128 254.409 24.024C256.244 24.8773 257.694 26.2 258.761 27.992C259.87 29.7413 260.425 32.0027 260.425 34.776C260.425 36.568 260.169 38.616 259.657 40.92H240.777V41.048C240.777 44.2907 241.438 46.744 242.761 48.408C244.126 50.072 246.302 50.904 249.289 50.904C250.654 50.904 252.148 50.7333 253.769 50.392C255.433 50.0507 257.054 49.5173 258.633 48.792L260.233 53.144ZM248.457 27.288C245.982 27.288 244.105 28.0987 242.825 29.72C241.588 31.2987 240.905 33.5387 240.777 36.44H255.113C255.241 35.672 255.305 34.9467 255.305 34.264C255.305 31.8747 254.622 30.1253 253.257 29.016C251.934 27.864 250.334 27.288 248.457 27.288Z" fill="#E5E7E9"/>
<circle cx="79.5" cy="40.5" r="8.5" fill="#ED1111"/>
<circle cx="79" cy="40" r="14" stroke="#ED1111" stroke-width="2"/>
<circle cx="79" cy="40" r="19" stroke="#ED1111" stroke-width="2"/>
</g>
<defs>
<clipPath id="clip0_2_8">
<rect width="266" height="77" fill="white"/>
</clipPath>
</defs>
</svg>
